<?xml version="1.0" encoding="iso-8859-1"?>
<!-- Generator: Adobe Illustrator 19.0.0, SVG Export Plug-In . SVG Version: 6.00 Build 0)  -->
<svg version="1.1" id="Layer_1" xmlns="http://www.w3.org/2000/svg" xmlns:xlink="http://www.w3.org/1999/xlink" x="0px" y="0px"
	 viewBox="0 0 419.546 419.546" style="enable-background:new 0 0 419.546 419.546;" xml:space="preserve">
<g>
	<g>
		<path style="fill:#F2D664;" d="M308.271,61.512l-11.76,11.76l-86.73,86.74l-86.74-86.74l-11.77-11.77
			c25.71-24.24,60.36-39.1,98.5-39.1C247.901,22.402,282.561,37.262,308.271,61.512z"/>
		<path style="fill:#ED4C58;" d="M296.506,73.272l-86.73,86.74l-86.74-86.74c22.72-21.26,53.23-34.3,86.73-34.3
			S273.776,52.012,296.506,73.272z"/>
		<path style="fill:#F2D664;" d="M209.778,171.512l-92.74,92.73l-11.77,11.77c-24.24-25.71-39.1-60.36-39.1-98.5
			c0-41.18,17.33-78.31,45.1-104.51l11.77,11.77L209.778,171.512z"/>
		<path style="fill:#F2D664;" d="M353.378,177.512c0,38.14-14.86,72.79-39.1,98.5l-11.77-11.77l-92.73-92.73l86.73-86.74
			l11.76-11.76C336.038,99.192,353.378,136.332,353.378,177.512z"/>
		<path style="fill:#ED4C58;" d="M336.808,177.512c0,33.5-13.04,64.01-34.3,86.73c-23.2,24.79-56.19,40.3-92.74,40.3
			c-36.54,0-69.53-15.51-92.73-40.3c-21.26-22.72-34.3-53.23-34.3-86.73c0-36.55,15.51-69.54,40.3-92.74l86.74,86.74l86.73-86.74
			C321.298,107.972,336.808,140.962,336.808,177.512z"/>
		<circle style="fill:#39B54A;" cx="172.888" cy="87.112" r="13.5"/>
		<circle style="fill:#FFFFFF;" cx="212.138" cy="116.362" r="9.75"/>
		<circle style="fill:#F2D664;" cx="226.638" cy="72.862" r="9.75"/>
		<circle style="fill:#F2D664;" cx="119.138" cy="133.112" r="6.25"/>
		<circle style="fill:#39B54A;" cx="278.638" cy="127.112" r="6.25"/>
	</g>
	<rect x="10.972" y="150.612" style="fill:#FCE583;" width="390.915" height="246.53"/>
	<rect x="61.526" y="178.7" style="fill:#D6BE56;" width="116.211" height="218.443"/>
	<rect x="66.526" y="183.7" style="fill:#FFFFFF;" width="106.211" height="208.443"/>
	<rect x="72.124" y="189.966" style="fill:#BAA342;" width="95.015" height="195.912"/>
	<rect x="77.624" y="195.966" style="fill:#2D4151;" width="84.015" height="183.912"/>
	<rect x="186.5" y="178.7" style="fill:#D6BE56;" width="196.703" height="175.912"/>
	<polygon style="fill:#FFFFFF;" points="385.333,223.946 378.203,223.946 378.203,183.7 191.5,183.7 191.5,223.946 184.371,223.946 
		184.371,231.875 191.5,231.875 191.5,349.612 378.203,349.612 378.203,231.875 385.333,231.875 	"/>
	<rect x="195.497" y="187.702" style="fill:#2D4151;" width="178.71" height="157.58"/>
	<rect x="186.5" y="359.612" style="fill:#D6BE56;" width="196.703" height="32.531"/>
	<rect x="191.5" y="364.612" style="fill:#FFFFFF;" width="186.703" height="22.531"/>
	<rect y="148.622" style="fill:#2D4151;" width="419.546" height="14.667"/>
	<g>
		<rect x="184.371" y="171.946" style="fill:#39B54A;" width="200.963" height="58"/>
		<rect x="209.491" y="171.946" style="fill:#ED4C58;" width="25.12" height="58"/>
		<rect x="234.611" y="171.946" style="fill:#FFFFFF;" width="25.12" height="58"/>
		<rect x="284.852" y="171.946" style="fill:#ED4C58;" width="25.12" height="58"/>
		<rect x="259.732" y="171.946" style="fill:#39B54A;" width="25.12" height="58"/>
		<rect x="309.972" y="171.946" style="fill:#FFFFFF;" width="25.12" height="58"/>
		<rect x="335.093" y="171.946" style="fill:#39B54A;" width="25.12" height="58"/>
		<rect x="360.213" y="171.946" style="fill:#ED4C58;" width="25.12" height="58"/>
	</g>
	<rect x="184.371" y="171.49" style="fill:#D6BE56;" width="200.963" height="6"/>
	<rect x="74.624" y="305.279" style="fill:#BAA342;" width="90.015" height="6"/>
	<path style="fill:#ED4C58;" d="M329.592,287.981l-0.094-2.422c-0.027-8.083-2.233-16.253-6.849-23.583
		c-4.628-7.348-11.064-12.877-18.365-16.392l-2.084-1.101l-0.071,0.134c-12.975-5.424-28.302-4.682-41.079,3.365
		c-20.841,13.125-27.118,40.758-13.993,61.599c13.125,20.841,40.758,27.118,61.599,13.993c12.776-8.046,20.067-21.545,20.782-35.588
		L329.592,287.981z M319.263,264.108c3.928,6.238,5.936,13.144,6.203,20.03l-40.474,1.558l18.892-35.832
		C309.976,253.078,315.336,257.871,319.263,264.108z M306.523,320.191c-18.974,11.95-44.133,6.234-56.083-12.74
		s-6.235-44.133,12.74-56.083c11.526-7.259,25.331-7.989,37.074-3.198l-22.032,41.788l47.202-1.816
		C324.67,300.8,318.048,312.932,306.523,320.191z"/>
	<circle style="fill:#ED4C58;" cx="268.389" cy="265.362" r="3.25"/>
	<circle style="fill:#ED4C58;" cx="308.639" cy="266.362" r="3.25"/>
	<circle style="fill:#ED4C58;" cx="302.889" cy="301.112" r="3.25"/>
	<circle style="fill:#ED4C58;" cx="278.639" cy="310.362" r="3.25"/>
	<circle style="fill:#ED4C58;" cx="255.889" cy="291.612" r="3.25"/>
	<path style="opacity:0.2;fill:#FCFAFA;enable-background:new    ;" d="M202.48,341.048h167.59v-95.871
		C370.069,245.177,343.157,329.303,202.48,341.048z"/>
	<path style="opacity:0.2;fill:#FCFAFA;enable-background:new    ;" d="M85.238,376.048h72.591v-41.526
		C157.828,334.522,146.171,370.961,85.238,376.048z"/>
	<rect x="21.647" y="178.7" style="fill:#D6BE56;" width="31.22" height="209.912"/>
	<rect x="26.647" y="183.7" style="fill:#FFFFFF;" width="21.221" height="199.912"/>
	<rect x="31.649" y="188.702" style="fill:#2D4151;" width="11.22" height="116.58"/>
	<rect x="31.649" y="311.283" style="fill:#2D4151;" width="11.22" height="67.33"/>
	<g>
		<circle style="fill:#D8D4D5;" cx="119.351" cy="255.111" r="2.469"/>
		<g>
			<polygon style="fill:#C1B9BC;" points="131.301,264.466 119.391,255.448 108.029,264.245 107.693,263.811 119.388,254.757 
				131.633,264.029 			"/>
		</g>
		<path style="fill:#39B54A;" d="M136.513,272.007c0,2.201-1.8,4-4,4H106.75c-2.2,0-4-1.799-4-4v-5.293c0-2.199,1.8-4,4-4h25.763
			c2.2,0,4,1.801,4,4V272.007z"/>
		<g>
			<path style="fill:#FAFCFC;" d="M111.577,265.104c0.601,0,1.112,0.213,1.533,0.636s0.631,0.933,0.631,1.529v4.935
				c0,0.602-0.212,1.112-0.635,1.533c-0.423,0.421-0.933,0.631-1.529,0.631c-0.601,0-1.111-0.211-1.529-0.635
				c-0.418-0.423-0.628-0.933-0.628-1.529v-4.935c0-0.601,0.212-1.112,0.635-1.533C110.477,265.315,110.985,265.104,111.577,265.104
				z M112.32,267.241c0-0.217-0.076-0.4-0.227-0.553c-0.152-0.151-0.335-0.227-0.552-0.227c-0.216,0-0.401,0.075-0.555,0.227
				c-0.154,0.152-0.231,0.336-0.231,0.553v4.949c0,0.216,0.077,0.4,0.231,0.551c0.154,0.152,0.339,0.228,0.555,0.228
				c0.217,0,0.4-0.075,0.552-0.228c0.151-0.15,0.227-0.335,0.227-0.551V267.241z"/>
			<path style="fill:#FAFCFC;" d="M117.095,265.22c0.664,0,1.193,0.209,1.587,0.628c0.365,0.398,0.548,0.908,0.548,1.529v1.313
				c0,0.597-0.208,1.106-0.624,1.529c-0.416,0.424-0.92,0.635-1.512,0.635h-0.786v3.406h-1.364v-9.04L117.095,265.22L117.095,265.22
				z M117.911,267.399c0-0.236-0.071-0.426-0.213-0.57s-0.331-0.217-0.566-0.217h-0.822v2.894h0.822c0.217,0,0.4-0.077,0.552-0.231
				c0.151-0.153,0.227-0.338,0.227-0.555V267.399z"/>
			<path style="fill:#FAFCFC;" d="M120.32,274.261v-9.047h3.881v1.37h-2.518v2.468h1.84v1.371h-1.84v2.467h2.518v1.371H120.32z"/>
			<path style="fill:#FAFCFC;" d="M126.67,265.214l1.81,6.08v-6.08h1.364v9.047h-1.465l-1.875-5.793v5.793h-1.364v-9.047H126.67z"/>
		</g>
	</g>
	<path style="opacity:0.2;fill:#FCFAFA;enable-background:new    ;" d="M157.828,199.17v102.654H99.104
		C99.104,301.824,150.634,285.339,157.828,199.17z"/>
	<path style="fill:#FFFFFF;" d="M203.389,201.53c0,0.538-0.103,1.038-0.308,1.5s-0.48,0.865-0.827,1.211
		c-0.346,0.346-0.749,0.622-1.211,0.827c-0.461,0.205-0.961,0.308-1.499,0.308h-5.769v10.767h-3.845v-26.917h9.613
		c1.076,0,1.986,0.372,2.729,1.115c0.743,0.744,1.115,1.654,1.115,2.73v8.459H203.389z M199.545,201.53v-8.459h-5.769v8.459H199.545
		z"/>
	<path style="fill:#FFFFFF;" d="M223.621,214.393h-3.845v-26.917h3.845V214.393z"/>
	<path style="fill:#FFFFFF;" d="M279.158,215.887h-13.766v-3.845l9.074-19.226H265.7v-3.845h13.15v3.845l-9.074,19.226h9.382
		V215.887z"/>
	<path style="fill:#39B54A;" d="M254.491,215.887h-13.766v-3.845l9.074-19.226h-8.767v-3.845h13.15v3.845l-9.074,19.226h9.382v3.845
		H254.491z"/>
	<path style="fill:#FFFFFF;" d="M307.876,217.066h-4.075l-0.77-3.845h-6.69l-0.77,3.845h-4.075l5.768-26.917h4.845L307.876,217.066z
		 M302.263,209.375l-2.5-12.535l-2.653,12.535H302.263z"/>
	<rect x="184.371" y="223.946" style="fill:#FFFFFF;" width="200.963" height="7.93"/>
</g>
<g>
</g>
<g>
</g>
<g>
</g>
<g>
</g>
<g>
</g>
<g>
</g>
<g>
</g>
<g>
</g>
<g>
</g>
<g>
</g>
<g>
</g>
<g>
</g>
<g>
</g>
<g>
</g>
<g>
</g>
</svg>
